<svg width="1271" height="280" viewBox="0 0 1271 280" fill="none" xmlns="http://www.w3.org/2000/svg">
<path d="M333.007 141.253C338.558 128.433 343.921 115.932 349.59 103.572C355.223 91.2905 361.25 79.1907 366.95 66.9394C376.149 47.1668 385.282 27.3631 394.288 7.50241C395.882 3.98887 398.099 2.49864 401.925 2.51181C427.421 2.59957 452.919 2.46377 478.412 2.74618C480.642 2.77088 483.969 4.75292 484.889 6.71545C496.282 31.0124 507.235 55.5148 518.483 79.88C525.706 95.5243 533.242 111.024 540.615 126.599C548.605 143.477 556.673 160.319 564.517 177.264C574.933 199.767 585.144 222.364 595.486 244.901C600.204 255.181 605.024 265.414 610.251 276.641C607.21 277.159 605.22 277.765 603.221 277.798C581.9 278.148 560.575 278.293 539.258 278.767C533.34 278.898 530.534 275.627 528.444 270.931C522.026 256.504 515.615 242.074 509.191 227.65C501.149 209.592 493.201 191.491 485.021 173.496C474.967 151.375 464.627 129.385 454.59 107.256C449.916 96.9513 445.675 86.4502 441.2 76.0541C440.895 75.3458 440.275 74.7729 439.106 73.2021C435.82 80.2825 432.782 86.6714 429.878 93.1205C424.022 106.123 418.215 119.147 412.433 132.182C405.727 147.299 399.157 162.476 392.362 177.553C386.322 190.957 379.944 204.208 373.928 217.622C369.816 226.789 366.219 236.186 362.119 245.357C357.977 254.62 353.521 263.744 349.156 272.906C347.281 276.843 343.687 278.283 339.732 278.266C317.914 278.174 296.098 277.901 274.281 277.677C273.467 277.668 272.654 277.528 270.996 277.367C272.21 273.374 272.886 269.492 274.52 266.069C281.323 251.814 288.633 237.801 295.339 223.503C302.302 208.656 308.681 193.536 315.506 178.623C321.178 166.228 327.128 153.96 333.007 141.253Z" fill="#F9F9F7"/>
<path d="M1113.47 275.533C1112.46 276.619 1111.57 278.511 1110.44 278.671C1091 281.419 1071.84 279.203 1053.54 272.74C1032.29 265.234 1013.08 253.702 997.053 237.641C983.061 223.621 973.292 206.934 965.794 188.472C958.365 170.181 956.786 151.491 956.879 132.198C956.969 113.389 962.441 96.118 970.585 79.5232C979.053 62.2702 990.867 47.5 1005.16 34.7341C1020.05 21.4345 1037.34 12.6144 1056.34 6.46783C1071.6 1.52964 1087.26 1.2093 1102.91 0.0303928C1104.71 -0.105487 1106.56 0.248044 1108.38 0.424253C1111.92 0.766935 1113.42 2.37851 1113.36 6.28528C1113.14 22.2807 1113.13 38.2837 1113.4 54.2782C1113.46 58.1724 1111.85 59.3468 1108.53 60.2922C1097.36 63.4802 1085.91 66.1199 1075.24 70.5728C1064.38 75.1009 1055.32 82.6474 1048.18 92.3608C1042.16 100.541 1037.33 109.166 1033.92 118.781C1028.02 135.4 1030.68 151.19 1036.23 167.32C1040.05 178.433 1045.86 188 1054.02 196.061C1067.17 209.047 1083.14 216.754 1101.45 219.628C1105.19 220.214 1108.82 221.482 1112.92 222.962C1113.39 240.836 1113.43 258.184 1113.47 275.533Z" fill="#F9F9F7"/>
<path d="M127.107 65.9117C123.151 65.8302 119.195 65.7486 114.433 65.6856C113.133 65.7731 112.638 65.8421 112.144 65.9112C104.52 65.8286 96.8955 65.746 88.4066 65.6826C86.4008 65.7722 85.2597 65.8427 84.1187 65.9131C71.8292 65.831 59.5398 65.7489 46.4387 65.6836C45.1326 65.7697 44.6381 65.8389 44.1436 65.9081C41.3599 65.8232 38.5762 65.7383 35.2104 65.6874C34.6284 65.7215 34.1617 65.8995 34.1617 65.8995C24.8486 65.8035 15.5335 65.554 6.22339 65.678C1.74737 65.7376 0.00468816 64.1231 0.0437242 59.5656C0.190586 42.4181 0.154938 25.2677 0.00084315 8.12004C-0.0348698 4.14532 1.05286 2.58864 5.37826 2.59376C99.2807 2.70511 193.183 2.69755 287.086 2.6064C291.77 2.60185 293.132 4.57705 293.102 8.88417C292.987 25.6993 292.941 42.5168 293.119 59.3307C293.169 64.0607 291.557 65.9331 286.725 65.7366C279.578 65.4461 272.41 65.668 264.439 65.6884C263.133 65.7713 262.639 65.8377 262.145 65.904C259.178 65.8245 256.211 65.7449 252.382 65.6798C250.051 65.7632 248.582 65.8322 247.113 65.9012C246.726 65.8248 246.339 65.7484 245.301 65.684C242.858 65.7646 241.065 65.8333 239.271 65.9019C238.19 65.8223 237.108 65.7427 235.324 65.6779C233.759 65.7652 232.897 65.8377 232.035 65.9102C229.74 65.8287 227.445 65.7471 224.449 65.6954C223.559 65.7839 223.37 65.8426 223.181 65.9013C212.216 65.8239 201.251 65.7466 189.433 65.686C184.753 65.7731 180.924 65.8435 177.095 65.9139C175.458 65.8314 173.822 65.7489 171.377 65.6806C164.411 65.7668 158.253 65.839 152.095 65.9111C149.144 65.8279 146.192 65.7446 142.381 65.677C140.051 65.766 138.581 65.8393 137.111 65.9126C136.111 65.8332 135.111 65.7539 133.31 65.6883C130.709 65.7719 128.908 65.8418 127.107 65.9117Z" fill="#F7F9F8"/>
<path d="M682.098 163.796C663.911 155.934 648.34 145.911 638.922 127.769C634.069 118.419 630.973 109.027 630.387 98.6387C630.183 95.0256 631.514 93.6249 635.28 93.6528C656.429 93.8094 677.582 93.6177 698.727 93.9758C701.377 94.0208 704.946 95.9453 706.446 98.1283C712.966 107.615 721.696 112.252 733.089 112.383C764.547 112.746 796.027 112.62 827.45 113.885C837.907 114.305 848.422 117.706 858.55 120.891C877.169 126.746 892.389 137.778 903.099 154.254C910.321 165.363 913.937 177.8 914.017 191.145C914.037 194.477 912.004 195.988 908.945 196.045C904.295 196.132 899.641 195.956 894.989 195.944C876.836 195.9 858.682 195.786 840.53 195.911C836.145 195.941 833.086 194.142 831.351 190.474C825.159 177.39 814.036 173.097 800.608 172.984C780.793 172.818 760.971 172.517 741.163 172.863C722.89 173.182 705.124 170.698 687.685 165.432C685.946 164.907 684.175 164.49 682.098 163.796Z" fill="#F9F9F9"/>
<path d="M632.251 78.5678C629.678 69.3491 634.557 61.7751 638.161 54.1741C648.396 32.5835 665.939 19.0214 687.628 9.97593C704.361 2.99694 721.682 1.44275 739.588 1.79165C767.378 2.33308 795.195 1.58779 822.979 2.25082C846.511 2.81236 866.531 12.2317 883.351 28.8323C894.145 39.4859 901.054 52.0596 904.552 66.6797C905.041 68.7246 905.781 70.7091 906.285 72.751C907.841 79.0512 906.952 80.2893 900.266 80.3005C886.285 80.3238 872.303 80.184 858.322 80.1054C855.659 80.0904 852.965 79.7793 850.337 80.0711C842.914 80.8951 837.921 78.574 834.343 71.3981C832.603 67.9108 827.755 65.8707 824.113 63.4803C822.36 62.3295 820.144 61.885 817.374 60.9784C788.754 60.7917 760.898 60.7397 733.042 60.7272C731.749 60.7266 730.456 61.0792 729.163 61.2673C720.209 62.6206 713.302 67.338 707.511 74.1062C705.996 75.8776 703.796 77.0636 701.113 78.5844C677.627 78.6229 654.939 78.5954 632.251 78.5678Z" fill="#F8F8F7"/>
<path d="M818.633 223.086C822.383 220.343 826.328 218.252 829.081 215.114C831.517 212.337 834.016 211.799 837.25 211.802C860.906 211.826 884.562 211.783 908.219 211.777C909.188 211.776 910.157 211.93 911.515 212.044C911.241 214.199 911.275 216.226 910.705 218.067C905.113 236.119 894.979 250.639 878.784 261.035C870.169 266.565 861.728 272.487 851.732 274.661C840.964 277.004 829.894 279.069 818.932 279.195C781.798 279.621 744.636 279.796 707.52 278.773C681.394 278.053 660.468 265.696 644.915 244.711C636.999 234.029 632.881 221.809 631.758 208.533C631.463 205.05 633.158 203.925 636.021 203.926C656.676 203.931 677.34 203.751 697.978 204.391C700.825 204.479 704.275 208.28 706.182 211.19C712.176 220.337 720.188 225.177 731.172 225.333C755.81 225.684 780.446 226.339 805.084 226.436C809.488 226.454 813.901 224.386 818.633 223.086Z" fill="#F9F9F8"/>
<path d="M109.828 95.1666C109.895 93.2281 109.748 86.7356 109.828 85.0508C134.227 85.0508 158.856 85.0508 183.259 85.0508C183.365 86.1719 183.259 92.3162 183.259 93.4228C183.269 152.424 183.263 211.426 183.254 270.427C183.253 277.699 183.242 277.691 175.913 277.694C155.707 277.704 135.5 277.594 115.297 277.833C110.844 277.886 109.747 276.471 109.756 272.156C109.881 213.321 109.834 154.486 109.828 95.1666Z" fill="#F7F9F8"/>
<path d="M1224.3 27.4851C1240.86 40.8223 1254.42 56.2486 1263.12 75.3904C1267.36 84.7455 1271.73 94.3598 1269.55 105.857C1258.2 105.857 1246.81 105.703 1235.42 105.903C1225.44 106.078 1215.45 106.538 1205.48 107.093C1200.32 107.381 1197.48 104.976 1194.84 100.698C1185.97 86.3285 1175.28 73.642 1158.58 68.0164C1149.62 64.9968 1140.44 62.5438 1131.22 60.438C1127.45 59.5776 1126.23 57.9041 1126.24 54.4351C1126.27 38.4459 1126.34 22.4559 1126.21 6.46771C1126.17 1.78423 1128.81 0.116358 1132.72 0.236475C1141.85 0.517603 1151 0.841853 1160.09 1.73406C1174.41 3.14027 1188.27 6.83422 1201.13 13.2466C1209.1 17.2218 1216.4 22.5649 1224.3 27.4851Z" fill="#F8F8F7"/>
<path d="M1257.48 214.812C1232.5 259.689 1175.15 285.346 1126.26 278.635C1126.26 272.356 1126.27 265.924 1126.26 259.492C1126.25 248.494 1126.27 237.496 1126.18 226.499C1126.15 223.204 1127.15 221.805 1130.79 220.955C1141.16 218.529 1151.93 216.55 1161.45 212.058C1172.52 206.829 1182.93 199.738 1189.26 188.377C1190.87 185.497 1192.62 182.632 1194.72 180.108C1196.89 177.499 1199.42 175.562 1203.4 175.596C1224.23 175.773 1245.06 175.735 1265.88 175.567C1269.46 175.538 1271.17 176.87 1270.39 180.15C1268.62 187.63 1266.81 195.143 1264.28 202.387C1262.78 206.669 1259.89 210.462 1257.48 214.812Z" fill="#F8F8F7"/>
<path d="M489.797 210.901C491.771 214.865 491.674 217.331 486.647 217.322C453.834 217.265 421.021 217.259 388.207 217.227C388.058 217.226 387.909 217.087 387.088 216.676C387.313 215.255 387.258 213.459 387.893 211.955C391.531 203.345 395.269 194.776 399.105 186.252C401.105 181.809 402.91 177.155 405.705 173.242C407.265 171.058 410.649 168.984 413.253 168.931C430.739 168.576 448.237 168.889 465.729 168.715C469.975 168.673 472.242 170.754 473.752 174.124C479.036 185.915 484.217 197.751 489.426 209.575C489.556 209.872 489.555 210.226 489.797 210.901Z" fill="#F6F6F5"/>
</svg>
